<?xml version="1.0" encoding="UTF-8" standalone="no"?>
<svg
   xmlns:dc="http://purl.org/dc/elements/1.1/"
   xmlns:cc="http://creativecommons.org/ns#"
   xmlns:rdf="http://www.w3.org/1999/02/22-rdf-syntax-ns#"
   xmlns:svg="http://www.w3.org/2000/svg"
   xmlns="http://www.w3.org/2000/svg"
   version="1.1"
   id="svg2"
   viewBox="0 0 800.00001 800.00001"
   height="800"
   width="800">
  <defs
     id="defs4" />
  <metadata
     id="metadata7">
    <rdf:RDF>
      <cc:Work
         rdf:about="">
        <dc:format>image/svg+xml</dc:format>
        <dc:type
           rdf:resource="http://purl.org/dc/dcmitype/StillImage" />
        <dc:title></dc:title>
      </cc:Work>
    </rdf:RDF>
  </metadata>
  <g
     transform="translate(0,-252.36216)"
     id="layer1">
    <path
       id="circle4149"
       d="m 87.775513,340.13808 a 299.69554,299.69554 0 0 0 0,423.82694 299.69554,299.69554 0 0 0 370.474417,42.01046 L 704.63939,1052.3622 800,957.00407 553.61055,710.61428 a 299.69554,299.69554 0 0 0 -42.00989,-370.4762 299.69554,299.69554 0 0 0 -423.825147,0 z m 70.651207,70.65179 a 199.79703,199.79703 0 0 1 282.52244,0 199.79703,199.79703 0 0 1 0,282.52333 199.79703,199.79703 0 0 1 -282.52244,0 199.79703,199.79703 0 0 1 0,-282.52333 z"
       style="color:#000000;clip-rule:nonzero;display:inline;overflow:visible;visibility:visible;opacity:1;isolation:auto;mix-blend-mode:normal;color-interpolation:sRGB;color-interpolation-filters:linearRGB;solid-color:#000000;solid-opacity:1;fill:#404040;fill-opacity:1;fill-rule:nonzero;stroke:none;stroke-width:0.40000001;stroke-miterlimit:4;stroke-dasharray:none;stroke-opacity:1;color-rendering:auto;image-rendering:auto;shape-rendering:auto;text-rendering:auto;enable-background:accumulate" />
  </g>
</svg>
